<svg width="29" height="23" viewBox="0 0 29 23" fill="none" xmlns="http://www.w3.org/2000/svg">
<path d="M2.27723 1.71487C6.63649 1.5518 11.0966 2.42429 14.9956 4.4088C16.7025 5.279 18.2608 6.49235 19.2381 8.16839C20.1957 9.81254 20.6481 11.6902 20.7734 13.5763C20.9479 16.1771 20.4913 18.7894 20.065 21.3441C20.0101 21.678 20.3132 21.9937 20.6319 22.0222C20.9905 22.0542 21.2551 21.7892 21.31 21.4552C22.0392 17.0827 22.7435 12.3416 20.6779 8.20655C18.6889 4.22645 14.2724 2.33128 10.1704 1.29999C7.62709 0.661343 5.01239 0.372734 2.39086 0.470044C2.05092 0.482369 1.74295 0.670735 1.71028 1.03678C1.68316 1.34057 1.93729 1.7272 2.27723 1.71487Z" fill="#233869"/>
<path d="M20.9724 20.7949C19.0762 18.6152 17.1825 16.4357 15.286 14.2585C14.7579 13.6516 13.7979 14.4519 14.3259 15.0613C16.2223 17.2385 18.1162 19.4155 20.0125 21.5952C20.5406 22.2021 21.5005 21.4018 20.9724 20.7949Z" fill="#233869"/>
<path d="M21.2462 21.8917C23.3678 19.8874 25.4892 17.8856 27.6108 15.8813C28.1945 15.331 27.3944 14.3686 26.808 14.9211C24.6864 16.9254 22.565 18.9272 20.4434 20.9315C19.8619 21.4845 20.6595 22.4468 21.2462 21.8917Z" fill="#233869"/>
</svg>
